# xmcd
#
# Track frame offsets:
#	150
#	34713
#	65336
#	93572
#	108325
#	179324
#	199583
#	217406
#	242958
#
# Disc length: 3476 seconds
#
# Revision: 1
# Processed by: cddbd v1.5.2PL0 Copyright (c) Steve Scherf et al.
# Submitted via: audiograbber 1.83.01
#
DISCID=820d9209
DTITLE=Colosseum - Anthology CD 2
DYEAR=1900
DGENRE=
TTITLE0=Backwater Blues
TTITLE1=Butty's Blues
TTITLE2=Down Hill And Shadows
TTITLE3=Elegy
TTITLE4=Lost Angeles
TTITLE5=The Kettle
TTITLE6=The Machine Demands A Sacrific
TTITLE7=Three Score And Ten, Amen
TTITLE8=Walking In The Park
EXTD=
EXTT0=
EXTT1=
EXTT2=
EXTT3=
EXTT4=
EXTT5=
EXTT6=
EXTT7=
EXTT8=
PLAYORDER=
